<?xml version="1.0" standalone="no"?>
<!DOCTYPE svg PUBLIC "-//W3C//DTD SVG 20010904//EN"
 "http://www.w3.org/TR/2001/REC-SVG-20010904/DTD/svg10.dtd">
<svg version="1.0" xmlns="http://www.w3.org/2000/svg"
 width="300.000000pt" height="300.000000pt" viewBox="0 0 300.000000 300.000000"
 preserveAspectRatio="xMidYMid meet">

<g transform="translate(0.000000,300.000000) scale(0.100000,-0.100000)"
fill="#000000" stroke="none">
<path d="M105 2953 c-11 -3 -32 -14 -48 -25 -61 -43 -57 52 -57 -1459 l0
-1382 25 -33 c15 -20 41 -38 63 -44 26 -8 454 -10 1427 -8 l1390 3 34 24 c65
46 61 -43 61 1452 0 1515 5 1406 -68 1451 l-37 23 -1385 2 c-762 1 -1394 -1
-1405 -4z m2036 -722 c18 -22 19 -46 19 -540 0 -439 -2 -520 -15 -537 -20 -27
-20 -211 0 -238 9 -12 15 -42 15 -72 0 -45 -4 -56 -27 -74 -26 -20 -31 -21
-557 -18 l-531 3 -43 23 c-65 35 -117 93 -141 156 -20 55 -21 72 -21 565 0
573 0 574 71 655 81 92 74 90 484 96 198 3 443 5 543 5 181 0 184 0 203 -24z"/>
<path d="M1227 1873 c-4 -3 -7 -24 -7 -45 l0 -38 326 0 325 0 -3 43 -3 42
-316 3 c-173 1 -318 -1 -322 -5z"/>
<path d="M1224 1676 c-3 -8 -4 -27 -2 -43 l3 -28 323 -3 322 -2 0 45 0 45
-320 0 c-267 0 -322 -2 -326 -14z"/>
<path d="M1103 1123 c-33 -6 -63 -50 -63 -90 0 -25 8 -43 29 -64 l29 -29 429
0 428 0 0 95 0 95 -415 -1 c-228 -1 -425 -4 -437 -6z"/>
</g>
</svg>
